<svg width="512" height="512" viewBox="0 0 512 512" fill="none" xmlns="http://www.w3.org/2000/svg">
<rect width="512" height="512" fill="white"/>
<path fill-rule="evenodd" clip-rule="evenodd" d="M251.867 383.751C322.917 383.751 380.515 326.723 380.515 256.376C380.515 186.028 322.917 129 251.867 129C180.816 129 123.218 186.028 123.218 256.376C123.218 326.723 180.816 383.751 251.867 383.751ZM253.153 205.425C231.332 258.304 214.04 279.666 174.677 219.982V294.588C235.974 305.484 270.333 305.31 331.629 294.588V219.982C297.839 268.803 282.137 271.626 253.153 205.425Z" fill="#312E81"/>
<path d="M46.9296 340.609L132.825 347.092L137.455 360.212L34.5643 350.162L31 340.062L106.075 271.285L110.705 284.405L46.9296 340.609Z" fill="#312E81"/>
<path d="M465.224 193.068L379.328 186.584L374.699 173.464L477.589 183.514L481.154 193.615L406.079 262.392L401.449 249.271L465.224 193.068Z" fill="#312E81"/>
</svg>
