<svg xmlns="http://www.w3.org/2000/svg" viewBox="0 0 1000 1000">
  <path fill="#57cafd" d="M942.53 267.86a179.49 179.49 0 01-176.3 145.69 181.31 181.31 0 01-29.29-2.55 252.57 252.57 0 0116.27 89.37c0 139.9-113.42 253.31-253.32 253.31a252.52 252.52 0 01-179.12-74.19L146.34 853.91a498.44 498.44 0 00353.55 146.45c276.15 0 500-223.86 500-500a497.62 497.62 0 00-57.36-232.5z"/>
  <path fill="#04a4fd" d="M499.89.36c-276.14 0-500 223.85-500 500a497.7 497.7 0 0057.36 232.49 179.49 179.49 0 01176.31-145.69 181.18 181.18 0 0129.28 2.56 252.77 252.77 0 01-16.26-89.36c0-139.9 113.41-253.31 253.31-253.31A252.52 252.52 0 01679 321.24L853.45 146.8A498.47 498.47 0 00499.89.36z"/>
  <path fill="#008fe8" d="M853.45 146.8C784 77.42 675.1 48.84 592.59 48.84c-114.27 0-346 72.85-346 451.52C246.58 360.46 360 247 499.89 247A252.53 252.53 0 01679 321.24 123.35 123.35 0 00853.45 146.8z"/>
  <path fill="#58baee" d="M146.34 853.91c69.37 69.34 178.3 97.93 260.81 97.93 114.28 0 346-72.86 346-451.52 0 139.9-113.42 253.31-253.32 253.31a252.52 252.52 0 01-179.12-74.19 123.34 123.34 0 00-174.37 174.47z"/>
</svg>
