<svg width="200" height="200" viewBox="0 0 200 200" fill="none" xmlns="http://www.w3.org/2000/svg">
<g clip-path="url(#clip0_1325_2)">
<mask id="mask0_1325_2" style="mask-type:luminance" maskUnits="userSpaceOnUse" x="-9" y="2" width="734" height="198">
<path d="M-8.901 2.24587H724.579V199.327H-8.901V2.24587Z" fill="white"/>
</mask>
<g mask="url(#mask0_1325_2)">
<path d="M167.365 140.467L116.164 81.071C123.604 89.703 124.037 102.348 117.201 111.466L72.6787 170.862C68.0094 177.091 60.756 180.571 53.2627 180.572H53.264H148.989C158.477 180.572 167.095 175.043 171.047 166.418C174.999 157.794 173.561 147.656 167.365 140.467Z" fill="#F04E25"/>
<path d="M116.164 81.0353L71.6396 29.3846C66.8063 23.7726 59.7863 20.83 52.653 21.0073C52.0996 21.022 51.5543 21.0766 51.009 21.1273C50.3556 21.1886 49.701 21.258 49.049 21.374C48.5343 21.4647 48.029 21.586 47.525 21.7087C46.8503 21.8727 46.1796 22.0593 45.5143 22.2833C45.0343 22.446 44.561 22.6246 44.0943 22.8166C43.4423 23.0833 42.809 23.378 42.1916 23.6966C41.7356 23.9313 41.2823 24.17 40.8436 24.4327C40.2623 24.7793 39.7076 25.1593 39.161 25.5513C38.7423 25.8513 38.321 26.1486 37.921 26.4753C37.3996 26.902 36.9143 27.3633 36.433 27.83C36.0676 28.1833 35.6943 28.5286 35.3503 28.906C34.8943 29.4046 34.485 29.942 34.0743 30.4766C33.7636 30.8806 33.4396 31.2713 33.1543 31.6966C32.785 32.2433 32.4716 32.826 32.1476 33.4006C31.8863 33.87 31.6063 34.3246 31.3743 34.8126C31.0903 35.4073 30.869 36.0313 30.6343 36.6486C30.445 37.15 30.2276 37.646 30.073 38.1553C29.8556 38.8673 29.7103 39.6033 29.5596 40.338C29.469 40.7713 29.3436 41.202 29.2783 41.638C29.1023 42.814 29.001 44.0113 29.001 45.2273C29.001 50.934 31.0156 56.578 34.8876 61.07L79.4116 112.721C84.0303 118.082 90.7476 121.141 97.7876 121.141C98.185 121.141 98.589 121.129 98.9903 121.111C106.305 120.747 113.04 117.087 117.353 111.189C124.008 102.09 123.541 89.594 116.164 81.0353Z" fill="#619C49"/>
<path d="M96.9259 72.6653C89.5806 72.9159 82.7459 76.4813 78.3393 82.3613L33.8153 141.757C30.5046 146.175 28.898 151.487 29.006 156.805C29.022 157.627 29.1006 158.433 29.1993 159.237C29.2486 159.636 29.27 160.035 29.338 160.432C29.498 161.36 29.734 162.263 29.998 163.156C30.0726 163.412 30.114 163.673 30.198 163.925C30.5753 165.067 31.0353 166.172 31.5713 167.235C31.714 167.517 31.8966 167.767 32.0486 168.041C32.478 168.816 32.9193 169.583 33.4286 170.304C33.6713 170.647 33.9526 170.955 34.21 171.284C34.686 171.888 35.1673 172.488 35.698 173.045C36.022 173.384 36.3726 173.691 36.714 174.008C37.238 174.497 37.7713 174.976 38.3393 175.419C38.7273 175.721 39.1313 176 39.538 176.279C40.1193 176.679 40.7166 177.056 41.3366 177.405C41.7633 177.645 42.198 177.877 42.6406 178.092C43.3086 178.416 43.9993 178.701 44.7033 178.968C45.1353 179.131 45.5633 179.303 46.0033 179.44C46.8379 179.699 47.6779 179.889 48.5206 180.056C48.8766 180.127 49.2246 180.228 49.5846 180.283C50.7886 180.467 51.9966 180.571 53.1993 180.572C53.2086 180.572 53.2179 180.573 53.2286 180.573C60.7219 180.573 67.9753 177.092 72.6446 170.861L117.169 111.467C124.003 102.349 123.569 89.7026 116.129 81.0719C111.335 75.5079 104.333 72.3266 96.9259 72.6653Z" fill="#724B3F"/>
<path d="M33.8147 141.757L66.6653 97.9332L34.888 61.0679C31.016 56.5772 29.0027 50.9359 29 45.2292V156.271L29.04 156.231C29.056 151.107 30.6227 146.013 33.8147 141.757Z" fill="#1EBEC9"/>
<path d="M71.6395 29.4203L128.505 95.3896L153.914 59.2057C159.115 51.799 159.761 42.1057 155.587 34.075C151.414 26.0417 143.113 21.0003 134.058 21.0003H53.2635C53.0568 21.0003 52.8582 21.039 52.6528 21.0443C59.7862 20.867 66.8062 23.8083 71.6395 29.4203Z" fill="#F9C312"/>
</g>
</g>
<defs>
<clipPath id="clip0_1325_2">
<rect width="200" height="200" fill="white"/>
</clipPath>
</defs>
</svg>
