<svg viewBox="0 0 87 86" fill="none" xmlns="http://www.w3.org/2000/svg"><g clip-path="url(#a)"><path d="M83.7544 0H3.09918C1.66489 0 0.502167 1.16677 0.502167 2.60606V83.1516C0.502167 84.5908 1.6649 85.7576 3.09919 85.7576H83.7544C85.1886 85.7576 86.3514 84.5908 86.3514 83.1516V2.60606C86.3514 1.16677 85.1886 0 83.7544 0Z" fill="#FF2D20"/><path d="M52.9411 58.0292H25.1473V21.4392H18.1005V64.3181H23.9669H25.1473H56.3035L52.9411 58.0292Z" fill="url(#b)"/><path d="M68.7521 21.4392H62.063V57.4217L42.5681 21.4392H32.2662V52.9552H38.8479V28.3356L58.3429 64.3181H68.7521V21.4392Z" fill="white"/><path d="M38.8479 37.3047H32.2662V56.6001H38.8479V37.3047Z" fill="url(#c)"/></g><defs><linearGradient id="b" x1="18.0993" y1="42.8787" x2="56.3139" y2="42.8787" gradientUnits="userSpaceOnUse"><stop stop-color="white"/><stop offset="0.1217" stop-color="#FFFBFB"/><stop offset="0.241" stop-color="#FFF0EF"/><stop offset="0.3594" stop-color="#FFDEDC"/><stop offset="0.4773" stop-color="#FFC3C0"/><stop offset="0.5948" stop-color="#FFA29C"/><stop offset="0.7121" stop-color="#FF7970"/><stop offset="0.8272" stop-color="#FF493E"/><stop offset="0.8616" stop-color="#FF392D"/><stop offset="1" stop-color="#FF2D20"/></linearGradient><linearGradient id="c" x1="35.568" y1="37.314" x2="35.568" y2="56.6223" gradientUnits="userSpaceOnUse"><stop stop-color="white"/><stop offset="0.1217" stop-color="#FFFBFB"/><stop offset="0.241" stop-color="#FFF0EF"/><stop offset="0.3594" stop-color="#FFDEDC"/><stop offset="0.4773" stop-color="#FFC3C0"/><stop offset="0.5948" stop-color="#FFA29C"/><stop offset="0.7121" stop-color="#FF7970"/><stop offset="0.8272" stop-color="#FF493E"/><stop offset="0.8616" stop-color="#FF392D"/><stop offset="1" stop-color="#FF2D20"/></linearGradient><clipPath id="a"><rect width="87" height="86" fill="white"/></clipPath></defs></svg>