<?xml version="1.0" encoding="utf-8"?>
<svg viewBox="62.287 149.0098 362.4374 151.0065" xmlns="http://www.w3.org/2000/svg">
  <style>
  .logo {
      fill: #333333;
  }

  @media (prefers-color-scheme: dark) {
      .logo {
          fill: #CCCCCC;
      }
  }
  </style>
  <path class="logo" d="M 69.833 295.583 L 88.743 295.583 L 88.743 259.095 L 89.32 259.095 C 91.939 264.777 97.665 271.125 108.674 271.125 C 124.21 271.125 136.328 258.829 136.328 236.013 C 136.328 212.575 123.677 200.945 108.718 200.945 C 97.31 200.945 91.85 207.737 89.32 213.286 L 88.477 213.286 L 88.477 201.833 L 69.833 201.833 Z M 88.343 235.924 C 88.343 223.761 93.493 215.993 102.681 215.993 C 112.047 215.993 117.019 224.117 117.019 235.924 C 117.019 247.82 111.959 256.077 102.681 256.077 C 93.581 256.077 88.343 248.087 88.343 235.924 Z M 167.793 179.106 L 148.883 179.106 L 148.883 270.015 L 167.793 270.015 Z M 213.691 271.347 C 234.376 271.347 247.249 257.187 247.249 236.19 C 247.249 215.061 234.376 200.945 213.691 200.945 C 193.006 200.945 180.133 215.061 180.133 236.19 C 180.133 257.187 193.006 271.347 213.691 271.347 Z M 213.78 256.698 C 204.236 256.698 199.353 247.954 199.353 236.057 C 199.353 224.161 204.236 215.372 213.78 215.372 C 223.146 215.372 228.029 224.161 228.029 236.057 C 228.029 247.954 223.146 256.698 213.78 256.698 Z M 259.576 270.015 L 278.486 270.015 L 278.486 201.833 L 259.576 201.833 Z M 269.075 193.044 C 274.712 193.044 279.329 188.738 279.329 183.456 C 279.329 178.218 274.712 173.912 269.075 173.912 C 263.482 173.912 258.865 178.218 258.865 183.456 C 258.865 188.738 263.482 193.044 269.075 193.044 Z" />
  <path class="logo" d="M 303.27 270.725 C 307.664 270.725 311.26 267.13 311.26 262.735 C 311.26 258.341 307.664 254.745 303.27 254.745 C 298.875 254.745 295.28 258.341 295.28 262.735 C 295.28 267.13 298.875 270.725 303.27 270.725 Z M 330.074 270.015 L 340.55 270.015 L 340.55 201.833 L 330.074 201.833 Z M 335.4 190.47 C 339.484 190.47 342.858 187.274 342.858 183.367 C 342.858 179.461 339.484 176.265 335.4 176.265 C 331.317 176.265 327.943 179.461 327.943 183.367 C 327.943 187.274 331.317 190.47 335.4 190.47 Z M 387.414 271.435 C 405.88 271.435 418.309 257.408 418.309 236.279 C 418.309 214.972 405.88 200.945 387.414 200.945 C 368.949 200.945 356.52 214.972 356.52 236.279 C 356.52 257.408 368.949 271.435 387.414 271.435 Z M 387.414 262.025 C 373.387 262.025 366.995 249.951 366.995 236.279 C 366.995 222.607 373.387 210.356 387.414 210.356 C 401.441 210.356 407.833 222.607 407.833 236.279 C 407.833 249.951 401.441 262.025 387.414 262.025 Z" />
</svg>
